<svg id="Layer_1" data-name="Layer 1" xmlns="http://www.w3.org/2000/svg" viewBox="0 0 448.91 111.04"><defs><style>.cls-1{fill:#19264f;}.cls-2{fill:#f8a22e;}.cls-3{opacity:0.5;}</style></defs><path class="cls-1" d="M42.71,4.35A20.47,20.47,0,0,1,55.37,23.93a21.21,21.21,0,0,1-3.3,11.82,20.86,20.86,0,0,1-9.36,7.76,34.76,34.76,0,0,1-14.27,2.71H22.26a2.34,2.34,0,0,0-2.34,2.34h0v9.83a2.36,2.36,0,0,1-2.35,2.34H2.34A2.34,2.34,0,0,1,0,58.39H0V4A2.36,2.36,0,0,1,2.34,1.65h26.1A34.92,34.92,0,0,1,42.71,4.35ZM33.25,29a6.51,6.51,0,0,0,2-5.11,6.47,6.47,0,0,0-2-5.1Q31.23,17,27.18,17H22.26a2.36,2.36,0,0,0-2.34,2.35V28.5a2.34,2.34,0,0,0,2.34,2.34h4.92C29.88,30.85,31.9,30.23,33.25,29Z" transform="translate(0 0)"/><path class="cls-1" d="M128.1,59.66,120.57,48a2.34,2.34,0,0,0-3.23-.72,2.25,2.25,0,0,0-.72.72l-7.31,11.59a2.32,2.32,0,0,1-2,1.09H90.48A2.34,2.34,0,0,1,88.58,57L106.3,32.29a2.33,2.33,0,0,0,0-2.71L89.3,5.34a2.34,2.34,0,0,1,1.92-3.69H107.8a2.34,2.34,0,0,1,1.94,1l7.38,10.92a2.35,2.35,0,0,0,3.26.64,2.43,2.43,0,0,0,.64-.64l7.16-10.86a2.36,2.36,0,0,1,2-1.06h15.6a2.34,2.34,0,0,1,1.9,3.71l-16.9,23.46a2.33,2.33,0,0,0,0,2.73L148.94,57A2.34,2.34,0,0,1,147,60.7H130A2.31,2.31,0,0,1,128.1,59.66Z" transform="translate(0 0)"/><path class="cls-1" d="M203.15,48.05V58.39a2.36,2.36,0,0,1-2.35,2.34H156.37A2.34,2.34,0,0,1,154,58.42V4a2.36,2.36,0,0,1,2.34-2.35h43.34A2.35,2.35,0,0,1,202.05,4V14.33a2.36,2.36,0,0,1-2.34,2.35H176A2.34,2.34,0,0,0,173.61,19v2.26a2.35,2.35,0,0,0,2.33,2.37H196.3a2.34,2.34,0,0,1,2.34,2.34V35.6a2.34,2.34,0,0,1-2.34,2.34H176a2.36,2.36,0,0,0-2.34,2.35v3.07A2.36,2.36,0,0,0,176,45.71h24.8A2.36,2.36,0,0,1,203.15,48.05Z" transform="translate(0 0)"/><path class="cls-1" d="M213.17,1.65H228.4A2.35,2.35,0,0,1,230.75,4h0V42.94a2.34,2.34,0,0,0,2.33,2.35h22a2.34,2.34,0,0,1,2.34,2.34V58.39a2.34,2.34,0,0,1-2.34,2.34h-41.9a2.34,2.34,0,0,1-2.34-2.34V4A2.35,2.35,0,0,1,213.17,1.65Z" transform="translate(0 0)"/><path class="cls-1" d="M318.26,35.5a14.13,14.13,0,0,1,2.87,8.94,13.62,13.62,0,0,1-6.41,12q-6.42,4.26-18.57,4.26H265.24a2.34,2.34,0,0,1-2.34-2.34V4a2.36,2.36,0,0,1,2.34-2.35h29.22q11.82,0,17.85,4.22a13.08,13.08,0,0,1,6,11.23,13.6,13.6,0,0,1-2.07,7.42,13.28,13.28,0,0,1-2.8,3.18,2.33,2.33,0,0,0-.39,3.27,2.37,2.37,0,0,0,.6.54A16,16,0,0,1,318.26,35.5ZM282.48,17.92V22a2.36,2.36,0,0,0,2.34,2.35h6.94c4.34,0,6.5-1.47,6.5-4.39s-2.16-4.39-6.5-4.39h-6.94a2.34,2.34,0,0,0-2.34,2.34Zm18.57,24.24c0-3.09-2.2-4.63-6.59-4.64h-9.64a2.36,2.36,0,0,0-2.34,2.35v4.59a2.36,2.36,0,0,0,2.34,2.35h9.64q6.54,0,6.59-4.65Z" transform="translate(0 0)"/><path class="cls-1" d="M409.35,17.1H396.74a2.35,2.35,0,0,1-2.35-2.35h0V4a2.35,2.35,0,0,1,2.35-2.35h49.83A2.36,2.36,0,0,1,448.91,4V14.75a2.36,2.36,0,0,1-2.34,2.35H434a2.34,2.34,0,0,0-2.34,2.34v39a2.34,2.34,0,0,1-2.34,2.34H414a2.36,2.36,0,0,1-2.35-2.34v-39A2.33,2.33,0,0,0,409.35,17.1Z" transform="translate(0 0)"/><rect class="cls-1" x="61.86" y="41.15" width="19.92" height="19.58" rx="2.34"/><rect class="cls-1" x="61.86" y="1.65" width="19.92" height="19.58" rx="2.34"/><path class="cls-2" d="M379.92,2.24V9.13a.58.58,0,0,0,.57.59h7.38a.58.58,0,0,1,.59.57V51.6a.58.58,0,0,1-.57.59H381a.58.58,0,0,0-.59.57v7.39a.58.58,0,0,1-.58.58h-41.3a.58.58,0,0,1-.59-.57h0v-6.9a.58.58,0,0,0-.58-.58H330a.6.6,0,0,1-.58-.59V10.66a.6.6,0,0,1,.58-.59h6.9a.6.6,0,0,0,.59-.58V2.24a.58.58,0,0,1,.57-.59h41.31A.59.59,0,0,1,379.92,2.24Zm-.59,14H338.51a.58.58,0,0,0-.59.59v28.7a.58.58,0,0,0,.58.58h40.83a.6.6,0,0,0,.59-.58V16.86a.61.61,0,0,0-.59-.59Z" transform="translate(0 0)"/><rect class="cls-2" x="342.61" y="24.18" width="9.33" height="9.33" rx="0.25"/><rect class="cls-2" x="365.9" y="24.18" width="9.33" height="9.33" rx="0.25"/><rect class="cls-2" x="349.84" width="5.19" height="5.19" rx="0.25"/><rect class="cls-2" x="362.8" width="5.19" height="5.19" rx="0.25"/><g class="cls-3"><path class="cls-1" d="M103.75,110.19a13.39,13.39,0,0,1-4.38-2l1.94-4.29a13.33,13.33,0,0,0,3.76,1.86,14.06,14.06,0,0,0,4.36.7,7.07,7.07,0,0,0,3.59-.72,2.19,2.19,0,0,0,1.16-1.91,1.8,1.8,0,0,0-.69-1.46,5.3,5.3,0,0,0-1.75-.94c-.72-.23-1.69-.49-2.91-.77a38.45,38.45,0,0,1-4.6-1.34,7.53,7.53,0,0,1-3.08-2.14,5.84,5.84,0,0,1-1.28-3.94A6.76,6.76,0,0,1,101,89.31a7.74,7.74,0,0,1,3.5-2.77,14.28,14.28,0,0,1,5.71-1,18.9,18.9,0,0,1,4.61.57,13.69,13.69,0,0,1,3.94,1.61L117,92a13.79,13.79,0,0,0-6.82-1.93,6.41,6.41,0,0,0-3.54.77,2.36,2.36,0,0,0-1.14,2,2,2,0,0,0,1.32,1.88,20,20,0,0,0,4,1.21,39.15,39.15,0,0,1,4.61,1.34,7.7,7.7,0,0,1,3.08,2.11,5.64,5.64,0,0,1,1.28,3.9,6.7,6.7,0,0,1-1.18,3.85,7.82,7.82,0,0,1-3.53,2.77,14.38,14.38,0,0,1-5.73,1A20,20,0,0,1,103.75,110.19Z" transform="translate(0 0)"/><path class="cls-1" d="M152.05,90.59h-7.88V86h21.46v4.64h-7.88v20h-5.7Z" transform="translate(0 0)"/><path class="cls-1" d="M192,108.07c-2-1.95-2.93-4.73-2.93-8.34V86h5.69V99.52q0,6.62,5.49,6.61a5.13,5.13,0,0,0,4.08-1.6q1.39-1.59,1.4-5V86h5.63V99.73q0,5.42-2.94,8.34c-2,1.94-4.69,2.92-8.21,2.92S193.94,110,192,108.07Z" transform="translate(0 0)"/><path class="cls-1" d="M233.11,86h11.18a15.79,15.79,0,0,1,7.09,1.53,11.48,11.48,0,0,1,4.78,4.3,13.15,13.15,0,0,1,0,12.94,11.5,11.5,0,0,1-4.78,4.31,15.79,15.79,0,0,1-7.09,1.53H233.11ZM244,105.89a8.26,8.26,0,0,0,5.89-2.06,8.15,8.15,0,0,0,0-11.15A8.26,8.26,0,0,0,244,90.62h-5.2v15.27Z" transform="translate(0 0)"/><path class="cls-1" d="M287.93,86h5.7v24.61h-5.7Z" transform="translate(0 0)"/><path class="cls-1" d="M329.16,109.33a12.33,12.33,0,0,1-4.82-4.55,13.11,13.11,0,0,1,0-13,12.33,12.33,0,0,1,4.82-4.55,15.19,15.19,0,0,1,13.8,0,12.55,12.55,0,0,1,0,22.15,15.19,15.19,0,0,1-13.8,0Zm10.85-4.2a7.21,7.21,0,0,0,2.76-2.8,8.84,8.84,0,0,0,0-8.16A7.28,7.28,0,0,0,340,91.38a8.28,8.28,0,0,0-7.88,0,7.25,7.25,0,0,0-2.76,2.79,8.84,8.84,0,0,0,0,8.16,7.21,7.21,0,0,0,2.76,2.8,8.28,8.28,0,0,0,7.88,0Z" transform="translate(0 0)"/></g></svg>